<svg xmlns="http://www.w3.org/2000/svg" xmlns:xlink="http://www.w3.org/1999/xlink" width="500" zoomAndPan="magnify" viewBox="0 0 375 187.499995" height="250" preserveAspectRatio="xMidYMid meet" version="1.0"><defs><g/></defs><g fill="#000000" fill-opacity="1"><g transform="translate(43.895989, 105.191611)"><g><path d="M 7.082031 13.339844 C 12.835938 13.339844 18.96875 9.609375 23.835938 5.375 C 28.640625 6.828125 33.445312 8.410156 38.503906 8.410156 C 42.171875 8.410156 45.523438 6.890625 47.230469 4.425781 C 47.925781 3.414062 47.925781 3.414062 47.925781 2.972656 C 47.925781 2.527344 47.417969 2.402344 47.039062 2.527344 C 46.660156 2.65625 46.089844 3.476562 45.773438 3.792969 C 43.816406 5.753906 41.160156 6.511719 38.628906 6.511719 C 36.226562 6.511719 30.664062 5.4375 25.351562 3.921875 C 34.140625 -3.605469 43.433594 -20.546875 43.433594 -31.992188 C 43.433594 -39.390625 39.390625 -43.625 31.992188 -43.625 C 18.019531 -43.625 4.617188 -30.03125 4.617188 -16.945312 C 4.617188 -12.328125 6.890625 -8.789062 11.695312 -8.789062 C 17.828125 -8.789062 22.824219 -15.617188 24.722656 -20.484375 C 25.226562 -21.75 24.089844 -22.445312 22.699219 -22.445312 C 21.9375 -22.445312 21.433594 -22.003906 21.179688 -21.242188 C 19.535156 -16.566406 15.617188 -11.445312 11.191406 -11.445312 C 7.839844 -11.445312 6.953125 -14.289062 6.953125 -16.945312 C 6.953125 -28.386719 19.285156 -41.476562 31.234375 -41.539062 C 37.300781 -41.539062 40.464844 -38.0625 40.464844 -31.992188 C 40.464844 -22.253906 30.917969 -6.511719 21.8125 2.972656 C 15.871094 1.769531 15.742188 1.515625 12.769531 1.515625 C 7.019531 1.515625 1.390625 5.121094 1.390625 9.609375 C 1.390625 12.519531 4.363281 13.339844 7.082031 13.339844 Z M 6.386719 12.011719 C 4.617188 12.011719 2.78125 11.191406 2.78125 9.546875 C 2.78125 5.878906 8.15625 3.035156 12.582031 3.035156 C 14.605469 3.035156 17.828125 3.667969 20.484375 4.363281 L 19.535156 5.246094 C 15.617188 8.976562 10.558594 12.011719 6.386719 12.011719 Z M 6.386719 12.011719 "/></g></g></g><g fill="#000000" fill-opacity="1"><g transform="translate(86.442418, 105.191611)"><g><path d="M 13.71875 0.316406 C 19.347656 0.316406 23.960938 -8.03125 26.617188 -11.886719 C 26.808594 -12.203125 26.742188 -12.457031 26.429688 -12.644531 C 25.921875 -12.960938 25.417969 -12.140625 25.226562 -11.886719 C 22.507812 -8.03125 18.523438 -1.074219 13.847656 -1.074219 C 10.304688 -1.074219 17.132812 -13.972656 20.296875 -21.558594 C 20.609375 -22.382812 20.167969 -22.886719 18.96875 -23.078125 C 17.765625 -23.265625 17.195312 -22.699219 16.628906 -21.558594 C 14.921875 -18.273438 13.53125 -15.554688 11.886719 -11.886719 C 10.433594 -8.660156 3.855469 -1.390625 1.960938 -1.390625 C -0.0625 -1.390625 4.425781 -10.304688 10.050781 -21.371094 C 10.683594 -22.570312 9.484375 -22.949219 8.660156 -23.015625 C 7.585938 -23.078125 6.890625 -22.382812 6.324219 -21.433594 C 3.351562 -16.816406 -5.058594 0.0625 1.960938 0.0625 C 4.425781 0.0625 8.21875 -3.414062 10.179688 -6.257812 C 9.421875 -1.832031 10.875 0.316406 13.71875 0.316406 Z M 13.71875 0.316406 "/></g></g></g><g fill="#000000" fill-opacity="1"><g transform="translate(110.402504, 105.191611)"><g><path d="M 16.25 0.316406 C 20.992188 0.316406 25.101562 -5.246094 29.082031 -11.886719 C 29.273438 -12.203125 29.148438 -12.707031 28.640625 -12.707031 C 28.324219 -12.707031 27.882812 -12.203125 27.691406 -11.886719 C 24.214844 -6.132812 20.609375 -1.074219 16.4375 -1.074219 C 15.679688 -1.074219 15.046875 -1.644531 15.046875 -2.59375 C 15.046875 -4.742188 16.816406 -8.789062 18.082031 -11.695312 C 19.15625 -14.164062 22.507812 -21.371094 22.507812 -22.003906 C 22.507812 -23.015625 21.875 -23.457031 21.054688 -23.457031 C 19.851562 -23.457031 19.664062 -23.203125 17.957031 -20.230469 C 16.375 -22.066406 14.984375 -23.203125 13.085938 -23.203125 C 7.144531 -23.203125 -0.0625 -12.203125 -0.0625 -5.5625 C -0.0625 -2.464844 1.136719 0.125 3.539062 0.125 C 6.449219 0.125 10.496094 -4.488281 12.644531 -7.523438 C 12.390625 -6.324219 12.265625 -5.3125 12.265625 -4.363281 C 12.265625 -1.265625 13.65625 0.316406 16.25 0.316406 Z M 3.921875 -1.390625 C 2.972656 -1.390625 2.71875 -2.085938 2.71875 -3.160156 C 2.71875 -8.472656 9.738281 -20.609375 14.414062 -20.609375 C 15.679688 -20.609375 16.691406 -19.535156 17.195312 -18.589844 C 16.4375 -16.945312 14.792969 -13.71875 14.035156 -12.074219 C 12.769531 -8.914062 6.703125 -1.390625 3.921875 -1.390625 Z M 3.921875 -1.390625 "/></g></g></g><g fill="#000000" fill-opacity="1"><g transform="translate(136.828123, 105.191611)"><g><path d="M 9.863281 -25.984375 C 10.9375 -25.417969 11.949219 -25.796875 12.457031 -26.429688 C 13.53125 -28.007812 12.265625 -29.96875 10.558594 -29.777344 C 8.597656 -29.589844 8.15625 -26.808594 9.863281 -25.984375 Z M 3.222656 0.316406 C 7.839844 0.316406 11.824219 -5.5 15.996094 -11.886719 C 16.183594 -12.203125 16.058594 -12.582031 15.679688 -12.707031 C 15.300781 -12.835938 14.792969 -12.203125 14.605469 -11.886719 C 10.9375 -6.449219 7.398438 -1.074219 3.222656 -1.074219 C 0.820312 -1.074219 2.78125 -7.523438 4.488281 -11.632812 C 5.5 -14.035156 9.355469 -20.738281 9.546875 -21.75 C 9.671875 -22.761719 8.851562 -23.015625 8.03125 -23.015625 C 7.585938 -23.015625 6.636719 -22.824219 6.195312 -22.191406 C 5.246094 -20.992188 3.414062 -18.523438 0.695312 -11.632812 C -1.515625 -6.132812 -1.582031 0.316406 3.222656 0.316406 Z M 3.222656 0.316406 "/></g></g></g><g fill="#000000" fill-opacity="1"><g transform="translate(150.167424, 105.191611)"><g/></g></g><g fill="#000000" fill-opacity="1"><g transform="translate(164.075703, 105.191611)"><g><path d="M 34.394531 10.9375 C 35.847656 11 36.355469 10.621094 36.417969 9.546875 C 36.605469 6.257812 37.617188 2.339844 39.136719 -1.898438 C 39.957031 -1.582031 40.714844 -1.453125 41.476562 -1.453125 C 46.976562 -1.390625 49.820312 -4.679688 54.4375 -11.886719 C 54.5 -12.011719 54.625 -12.457031 54.308594 -12.644531 C 53.929688 -12.835938 53.550781 -12.707031 53.046875 -11.886719 C 48.429688 -4.867188 46.152344 -2.78125 41.601562 -2.84375 C 40.96875 -2.84375 40.335938 -2.972656 39.640625 -3.222656 C 46.34375 -21.371094 60.570312 -43.941406 52.035156 -43.941406 C 43.75 -43.941406 34.582031 -25.226562 25.164062 -12.390625 C 20.863281 -15.109375 16.25 -17.386719 11.507812 -17.449219 C -1.582031 -17.640625 -4.363281 0.632812 9.925781 0.886719 C 15.679688 1.011719 21.117188 -3.667969 26.238281 -9.988281 C 29.652344 -7.585938 32.875 -5.058594 35.785156 -3.414062 C 34.140625 1.203125 33.003906 5.5625 32.6875 9.355469 C 32.625 10.179688 33.257812 10.875 34.394531 10.9375 Z M 36.355469 -4.804688 C 33.636719 -6.449219 30.472656 -8.851562 27.125 -11.128906 C 36.988281 -23.773438 45.332031 -41.917969 50.960938 -41.855469 C 55.449219 -41.792969 42.929688 -22.191406 36.355469 -4.804688 Z M 9.988281 -0.503906 C -1.832031 -0.757812 0.695312 -16.183594 11.445312 -16.058594 C 15.933594 -15.996094 20.230469 -13.847656 24.339844 -11.253906 C 19.601562 -4.996094 14.792969 -0.378906 9.988281 -0.503906 Z M 9.988281 -0.503906 "/></g></g></g><g fill="#000000" fill-opacity="1"><g transform="translate(215.852091, 105.191611)"><g><path d="M -1.515625 0.316406 C -0.253906 0.316406 -0.125 -0.125 0.125 -0.378906 C 0.570312 -1.390625 1.898438 -4.804688 3.035156 -7.269531 C 6.132812 -13.847656 11.253906 -20.992188 13.972656 -20.992188 C 15.300781 -20.992188 14.859375 -19.980469 13.152344 -16.121094 C 11.378906 -12.140625 9.292969 -6.953125 9.292969 -3.414062 C 9.292969 -1.011719 10.9375 0.316406 13.023438 0.316406 C 18.839844 0.316406 24.089844 -9.421875 25.859375 -11.886719 C 25.921875 -12.011719 26.046875 -12.390625 25.734375 -12.582031 C 25.351562 -12.835938 25.164062 -12.769531 24.46875 -11.886719 C 22.507812 -9.355469 18.144531 -1.074219 13.085938 -1.074219 C 9.800781 -1.074219 14.859375 -11.128906 16.882812 -16.121094 C 18.777344 -20.863281 17.386719 -23.140625 15.046875 -23.140625 C 11.570312 -23.140625 8.21875 -18.589844 6.890625 -16.4375 C 8.410156 -19.726562 8.914062 -20.863281 9.230469 -22.128906 C 9.421875 -22.886719 8.535156 -23.394531 7.964844 -23.394531 C 6.574219 -23.394531 6.132812 -22.699219 5.816406 -22.128906 C 5.058594 -20.800781 3.792969 -18.589844 2.085938 -13.972656 C 0.378906 -9.421875 -2.339844 -3.289062 -2.71875 -0.570312 C -2.78125 -0.0625 -2.210938 0.316406 -1.515625 0.316406 Z M -1.515625 0.316406 "/></g></g></g><g fill="#000000" fill-opacity="1"><g transform="translate(239.05355, 105.191611)"><g><path d="M 3.160156 0.316406 C 8.34375 0.316406 12.328125 -6.324219 16.058594 -11.886719 C 16.25 -12.203125 16.183594 -12.457031 15.871094 -12.644531 C 15.425781 -12.898438 14.921875 -12.265625 14.667969 -11.886719 C 10.75 -6.195312 7.585938 -1.074219 3.160156 -1.074219 C -0.570312 -1.074219 6.132812 -15.488281 11.378906 -25.542969 L 13.46875 -25.542969 C 14.097656 -25.542969 14.164062 -25.796875 14.289062 -26.175781 C 14.351562 -26.429688 14.289062 -26.871094 13.972656 -26.871094 L 12.074219 -26.871094 C 13.78125 -30.15625 15.300781 -32.8125 16.058594 -34.203125 C 16.3125 -34.710938 15.679688 -35.214844 15.238281 -35.40625 C 14.542969 -35.722656 13.78125 -35.785156 13.152344 -34.898438 C 12.707031 -34.269531 10.875 -31.042969 8.660156 -26.933594 L 6.324219 -26.933594 C 5.816406 -26.933594 5.5625 -26.933594 5.375 -26.300781 C 5.3125 -26.046875 5.375 -25.605469 5.691406 -25.605469 L 7.964844 -25.605469 C 4.550781 -19.09375 0.570312 -10.9375 -0.0625 -7.082031 C -0.886719 -2.210938 0.191406 0.316406 3.160156 0.316406 Z M 3.160156 0.316406 "/></g></g></g><g fill="#000000" fill-opacity="1"><g transform="translate(252.456073, 105.191611)"><g><path d="M 9.863281 -25.984375 C 10.9375 -25.417969 11.949219 -25.796875 12.457031 -26.429688 C 13.53125 -28.007812 12.265625 -29.96875 10.558594 -29.777344 C 8.597656 -29.589844 8.15625 -26.808594 9.863281 -25.984375 Z M 3.222656 0.316406 C 7.839844 0.316406 11.824219 -5.5 15.996094 -11.886719 C 16.183594 -12.203125 16.058594 -12.582031 15.679688 -12.707031 C 15.300781 -12.835938 14.792969 -12.203125 14.605469 -11.886719 C 10.9375 -6.449219 7.398438 -1.074219 3.222656 -1.074219 C 0.820312 -1.074219 2.78125 -7.523438 4.488281 -11.632812 C 5.5 -14.035156 9.355469 -20.738281 9.546875 -21.75 C 9.671875 -22.761719 8.851562 -23.015625 8.03125 -23.015625 C 7.585938 -23.015625 6.636719 -22.824219 6.195312 -22.191406 C 5.246094 -20.992188 3.414062 -18.523438 0.695312 -11.632812 C -1.515625 -6.132812 -1.582031 0.316406 3.222656 0.316406 Z M 3.222656 0.316406 "/></g></g></g><g fill="#000000" fill-opacity="1"><g transform="translate(265.795374, 105.191611)"><g><path d="M 6.703125 21.308594 C 12.074219 21.308594 17.007812 12.898438 17.007812 7.398438 C 17.007812 5.878906 16.691406 4.679688 16.183594 3.667969 C 20.609375 -0.191406 24.339844 -6.386719 28.007812 -11.886719 C 28.199219 -12.203125 28.136719 -12.457031 27.820312 -12.644531 C 27.3125 -12.960938 26.742188 -12.074219 26.617188 -11.886719 C 23.835938 -7.902344 19.601562 -0.820312 15.488281 2.65625 C 14.667969 1.515625 13.339844 0.632812 11.695312 0.632812 C 13.152344 -2.65625 21.875 -20.421875 22.316406 -21.621094 C 22.632812 -22.445312 22.003906 -23.519531 20.800781 -23.519531 C 20.167969 -23.519531 19.410156 -23.140625 18.839844 -22.128906 L 17.957031 -20.230469 C 16.375 -22.066406 15.175781 -23.203125 13.085938 -23.203125 C 7.460938 -23.203125 -0.0625 -12.390625 -0.0625 -5.5625 C -0.0625 -2.464844 1.136719 0.125 3.539062 0.125 C 6.195312 0.125 9.546875 -3.476562 11.761719 -6.324219 C 7.207031 2.527344 3.160156 11.316406 3.160156 16.183594 C 3.160156 19.21875 4.550781 21.308594 6.703125 21.308594 Z M 3.921875 -1.390625 C 0.632812 -1.390625 6.953125 -20.609375 14.414062 -20.609375 C 15.679688 -20.609375 16.691406 -19.535156 17.195312 -18.652344 C 17.449219 -18.902344 14.164062 -12.390625 14.035156 -12.074219 C 12.140625 -8.15625 6.703125 -1.390625 3.921875 -1.390625 Z M 11.949219 4.550781 C 11.0625 4.550781 10.496094 4.300781 10.179688 3.984375 C 10.496094 3.289062 10.75 2.65625 10.9375 2.148438 C 12.140625 1.515625 13.71875 2.210938 14.667969 3.289062 C 13.65625 4.109375 12.769531 4.550781 11.949219 4.550781 Z M 7.082031 19.980469 C 3.351562 19.980469 6.386719 12.203125 9.609375 5.246094 C 10.050781 5.5625 10.8125 5.878906 11.632812 5.878906 C 12.769531 5.878906 13.847656 5.3125 15.300781 4.300781 C 15.679688 5.121094 15.871094 6.132812 15.871094 7.335938 C 15.871094 12.011719 11.0625 19.980469 7.082031 19.980469 Z M 7.082031 19.980469 "/></g></g></g><g fill="#000000" fill-opacity="1"><g transform="translate(291.146258, 105.191611)"><g><path d="M 13.71875 0.316406 C 19.347656 0.316406 23.960938 -8.03125 26.617188 -11.886719 C 26.808594 -12.203125 26.742188 -12.457031 26.429688 -12.644531 C 25.921875 -12.960938 25.417969 -12.140625 25.226562 -11.886719 C 22.507812 -8.03125 18.523438 -1.074219 13.847656 -1.074219 C 10.304688 -1.074219 17.132812 -13.972656 20.296875 -21.558594 C 20.609375 -22.382812 20.167969 -22.886719 18.96875 -23.078125 C 17.765625 -23.265625 17.195312 -22.699219 16.628906 -21.558594 C 14.921875 -18.273438 13.53125 -15.554688 11.886719 -11.886719 C 10.433594 -8.660156 3.855469 -1.390625 1.960938 -1.390625 C -0.0625 -1.390625 4.425781 -10.304688 10.050781 -21.371094 C 10.683594 -22.570312 9.484375 -22.949219 8.660156 -23.015625 C 7.585938 -23.078125 6.890625 -22.382812 6.324219 -21.433594 C 3.351562 -16.816406 -5.058594 0.0625 1.960938 0.0625 C 4.425781 0.0625 8.21875 -3.414062 10.179688 -6.257812 C 9.421875 -1.832031 10.875 0.316406 13.71875 0.316406 Z M 13.71875 0.316406 "/></g></g></g><g fill="#000000" fill-opacity="1"><g transform="translate(315.106345, 105.191611)"><g><path d="M 6.324219 0.316406 C 11.253906 0.316406 15.363281 -5.753906 19.285156 -11.886719 C 19.472656 -12.203125 19.535156 -12.390625 18.96875 -12.707031 C 18.652344 -12.898438 18.144531 -12.203125 17.894531 -11.886719 C 14.351562 -6.636719 10.8125 -1.074219 6.386719 -1.074219 C 2.464844 -1.074219 3.289062 -7.714844 5.5625 -12.960938 C 10.304688 -12.960938 15.363281 -16.058594 15.363281 -19.347656 C 15.363281 -21.875 13.71875 -23.078125 11.695312 -23.078125 C 5.691406 -23.078125 0.570312 -12.582031 0.570312 -6.953125 C 0.570312 -0.632812 3.667969 0.316406 6.324219 0.316406 Z M 6.257812 -14.414062 C 8.03125 -18.589844 10.621094 -20.484375 12.265625 -20.484375 C 13.152344 -20.484375 13.53125 -19.601562 13.53125 -18.902344 C 13.53125 -16.566406 8.976562 -14.414062 6.257812 -14.414062 Z M 6.257812 -14.414062 "/></g></g></g></svg>